<svg xmlns="http://www.w3.org/2000/svg" version="1.1" xmlns:xlink="http://www.w3.org/1999/xlink" xmlns:svgjs="http://svgjs.dev/svgjs" width="1000" height="1000" viewBox="0 0 1000 1000"><rect width="1000" height="1000" fill="#0c1d36"></rect><g transform="matrix(0.7,0,0,0.7,149.57576513396947,402.709937586499)"><svg viewBox="0 0 396 110" data-background-color="#0c1d36" preserveAspectRatio="xMidYMid meet" height="277" width="1000" xmlns="http://www.w3.org/2000/svg" xmlns:xlink="http://www.w3.org/1999/xlink"><g id="tight-bounds" transform="matrix(1,0,0,1,0.23999585858689443,0.19291833669475977)"><svg viewBox="0 0 395.52 109.6141633266105" height="109.6141633266105" width="395.52"><g><svg viewBox="0 0 645.9397989867259 179.01534846604198" height="109.6141633266105" width="395.52"><g><rect width="7.573569894400001" height="155.4402446883143" x="415.34609919999997" y="11.787551888863845" fill="#ffcf00" opacity="1" stroke-width="0" stroke="transparent" fill-opacity="1" class="rect-o-0" data-fill-palette-color="primary" rx="1%" id="o-0" data-palette-color="#ffcf00"></rect></g><g transform="matrix(1,0,0,1,0,24.74090561289003)"><svg viewBox="0 0 395.52 129.53353724026192" height="129.53353724026192" width="395.52"><g id="textblocktransform"><svg viewBox="0 0 395.52 129.53353724026192" height="129.53353724026192" width="395.52" id="textblock"><g><svg viewBox="0 0 395.52 83.98184991273997" height="83.98184991273997" width="395.52"><g transform="matrix(1,0,0,1,0,0)"><svg width="395.52" viewBox="3.6500000953674316 -36.20000076293945 171.8800048828125 36.5" height="83.98184991273997" data-palette-color="#ffcf00"><path d="M8.8-14.1L8.8 0 3.65 0 3.65-33.7 9.75-33.7 18.05-19.6Q20.35-15.65 22.23-12.3 24.1-8.95 24.8-7.6L24.8-7.6 25.5-6.2Q25.2-10.75 25.2-19.55L25.2-19.55 25.2-33.7 30.35-33.7 30.35 0 24.25 0 15.9-14.05Q13.65-17.85 11.78-21.23 9.9-24.6 9.15-26.1L9.15-26.1 8.4-27.55Q8.8-22.55 8.8-14.1L8.8-14.1ZM56.35-5.75L56.35-1.35Q53.55 0.25 48.95 0.25L48.95 0.25Q43.05 0.25 39.55-3.3 36.05-6.85 36.05-12.6L36.05-12.6Q36.05-18.7 39.25-22.18 42.45-25.65 47.4-25.65L47.4-25.65Q52.25-25.65 55.1-22.63 57.95-19.6 57.95-13.9L57.95-13.9Q57.95-12.35 57.65-10.65L57.65-10.65 41-10.65Q41.5-7.35 43.8-5.6 46.1-3.85 49.6-3.85L49.6-3.85Q53.65-3.85 56.35-5.75L56.35-5.75ZM47.5-21.6L47.5-21.6Q45-21.6 43.2-19.78 41.4-17.95 40.95-14.5L40.95-14.5 53.2-14.5 53.2-15.4Q53.1-18.25 51.65-19.93 50.2-21.6 47.5-21.6ZM72.59-9.3L66.75 0 61.35 0 70-12.9 61.9-25.4 67.45-25.4 72.75-16.45 78.2-25.4 83.7-25.4 75.25-12.85 83.7 0 78.15 0 72.59-9.3ZM108.94-25.35L108.94 0 104.04 0 104.04-4.35Q102.04 0.3 96.14 0.3L96.14 0.3Q92.39 0.3 90.19-1.93 87.99-4.15 87.99-8.05L87.99-8.05 87.99-25.35 92.94-25.35 92.94-9.25Q92.94-6.65 94.22-5.28 95.49-3.9 97.74-3.9L97.74-3.9Q100.59-3.9 102.32-5.9 104.04-7.9 104.04-11.55L104.04-11.55 104.04-25.35 108.94-25.35ZM131.69-7L131.69-7Q131.69-3.6 129.29-1.68 126.89 0.25 122.79 0.25L122.79 0.25Q118.29 0.25 115.29-1.25L115.29-1.25 115.29-5.9Q118.79-3.75 122.54-3.75L122.54-3.75Q124.49-3.75 125.56-4.55 126.64-5.35 126.64-6.65L126.64-6.65Q126.64-7.75 125.79-8.63 124.94-9.5 124.06-9.93 123.19-10.35 121.09-11.25L121.09-11.25Q115.14-13.7 115.14-18.45L115.14-18.45Q115.14-21.8 117.64-23.7 120.14-25.6 123.89-25.6L123.89-25.6Q127.99-25.6 130.29-24.5L130.29-24.5 130.29-20.05Q127.84-21.5 123.99-21.5L123.99-21.5Q122.24-21.5 121.22-20.7 120.19-19.9 120.19-18.6L120.19-18.6Q120.19-18.25 120.27-17.93 120.34-17.6 120.54-17.28 120.74-16.95 120.92-16.73 121.09-16.5 121.49-16.25 121.89-16 122.12-15.83 122.34-15.65 122.87-15.4 123.39-15.15 123.64-15.03 123.89-14.9 124.52-14.63 125.14-14.35 125.39-14.25L125.39-14.25Q128.34-12.95 130.01-11.33 131.69-9.7 131.69-7ZM144.99-14.25L144.99-14.25 144.44-12.55 155.24-12.55 154.69-14.25Q152.79-20.15 151.59-24.03 150.39-27.9 150.14-28.85L150.14-28.85 149.89-29.8Q149.34-27.45 144.99-14.25ZM143.04-8.25L140.34 0 134.89 0 146.54-33.7 153.29-33.7 164.79 0 159.29 0 156.64-8.25 143.04-8.25ZM174.94-25.35L174.94 0 169.99 0 169.99-25.35 174.94-25.35ZM175.53-33.1L175.53-33.1Q175.53-31.85 174.64-30.95 173.74-30.05 172.44-30.05 171.14-30.05 170.26-30.93 169.39-31.8 169.39-33.1 169.39-34.4 170.26-35.3 171.14-36.2 172.44-36.2 173.74-36.2 174.64-35.3 175.53-34.4 175.53-33.1Z" opacity="1" transform="matrix(1,0,0,1,0,0)" fill="#ffcf00" class="undefined-text-0" data-fill-palette-color="primary" id="text-0"></path></svg></g></svg></g><g transform="matrix(1,0,0,1,163.310208,103.80794911273998)"><svg viewBox="0 0 232.209792 25.725588127521945" height="25.725588127521945" width="232.209792"><g transform="matrix(1,0,0,1,0,0)"><svg width="232.209792" viewBox="5.320000171661377 -39.11000061035156 475.5199890136719 52.68000030517578" height="25.725588127521945" data-palette-color="#fccc00"><path d="M5.32 0L5.32-35.77 17.41-35.77Q22.14-35.77 25.72-34.46 29.3-33.15 31.69-30.91 34.08-28.66 35.29-25.61 36.5-22.56 36.5-19.09L36.5-19.09Q36.5-16.85 35.99-14.56 35.47-12.28 34.41-10.16 33.35-8.03 31.74-6.18 30.13-4.32 27.92-2.95 25.71-1.59 22.89-0.79 20.07 0 16.63 0L16.63 0 5.32 0ZM10.11-31.98L10.11-3.78 17.5-3.78Q21.04-3.78 23.68-4.92 26.32-6.05 28.04-8 29.76-9.94 30.62-12.54 31.47-15.14 31.47-18.09L31.47-18.09Q31.47-21.31 30.48-23.89 29.49-26.46 27.6-28.26 25.71-30.05 22.94-31.02 20.17-31.98 16.63-31.98L16.63-31.98 10.11-31.98ZM58.37-3.86L58.37-3.86Q57.76-3.34 56.89-2.6 56.03-1.86 54.94-1.17 53.85-0.49 52.57 0 51.29 0.49 49.85 0.49L49.85 0.49Q48.56 0.49 47.32 0.04 46.09-0.42 45.14-1.31 44.19-2.2 43.61-3.52 43.04-4.83 43.04-6.54L43.04-6.54Q43.04-7.59 43.3-8.67 43.55-9.74 44.16-10.73 44.77-11.72 45.76-12.59 46.75-13.45 48.2-14.1 49.66-14.75 51.63-15.11 53.61-15.48 56.17-15.48L56.17-15.48 58.37-15.48 58.37-17.72Q58.37-18.85 57.98-19.75 57.59-20.65 56.89-21.3 56.2-21.95 55.23-22.3 54.27-22.66 53.1-22.66L53.1-22.66Q52.22-22.66 51.23-22.46 50.24-22.27 49.25-21.9 48.26-21.53 47.36-21.04 46.46-20.56 45.77-19.97L45.77-19.97 45.33-20.21 44.36-23.78Q45.77-24.56 47.09-25.06 48.41-25.56 49.62-25.85 50.83-26.15 51.93-26.26 53.02-26.37 54.03-26.37L54.03-26.37Q58.59-26.37 60.8-24.48 63.01-22.58 63.01-18.8L63.01-18.8 63.01-6.05Q63.01-5.74 63.06-5.29 63.11-4.83 63.29-4.42 63.47-4 63.83-3.71 64.18-3.42 64.79-3.42L64.79-3.42Q65.13-3.42 65.7-3.53 66.26-3.64 66.82-3.91L66.82-3.91 66.82-1.32Q65.65-0.51 64.46-0.01 63.28 0.49 62.18 0.49L62.18 0.49Q61.18 0.49 60.53 0.09 59.89-0.32 59.46-0.95 59.03-1.59 58.79-2.36 58.54-3.13 58.37-3.86ZM58.37-6.98L58.37-12.65 56.52-12.65Q53.66-12.65 51.96-12.24 50.27-11.84 49.37-11.17 48.48-10.5 48.2-9.62 47.92-8.74 47.92-7.79L47.92-7.79Q47.92-6.76 48.22-5.96 48.51-5.15 49.03-4.58 49.56-4 50.29-3.71 51.02-3.42 51.88-3.42L51.88-3.42Q52.54-3.42 53.23-3.58 53.93-3.74 54.72-4.14 55.52-4.54 56.41-5.22 57.3-5.91 58.37-6.98L58.37-6.98ZM74.24-6.49L74.24-22.17 69.01-22.17 69.4-24.56Q71.31-24.95 72.46-25.55 73.6-26.15 74.35-27.05 75.09-27.95 75.59-29.24 76.09-30.52 76.73-32.3L76.73-32.3 78.88-32.3 78.88-25.88 88.25-25.88 87.28-22.17 78.88-22.17 78.88-7.71Q78.88-6.54 79.23-5.73 79.58-4.91 80.22-4.39 80.85-3.88 81.76-3.65 82.66-3.42 83.76-3.42L83.76-3.42Q84.88-3.42 85.99-3.63 87.1-3.83 88.11-4.2L88.11-4.2 88.11-1.56Q86.57-0.56 84.87-0.04 83.17 0.49 81.42 0.49L81.42 0.49Q79.78 0.49 78.46 0.02 77.14-0.44 76.2-1.32 75.26-2.2 74.75-3.5 74.24-4.81 74.24-6.49L74.24-6.49ZM109.2-3.86L109.2-3.86Q108.59-3.34 107.72-2.6 106.85-1.86 105.77-1.17 104.68-0.49 103.4 0 102.12 0.49 100.68 0.49L100.68 0.49Q99.38 0.49 98.15 0.04 96.92-0.42 95.96-1.31 95.01-2.2 94.44-3.52 93.86-4.83 93.86-6.54L93.86-6.54Q93.86-7.59 94.12-8.67 94.38-9.74 94.99-10.73 95.6-11.72 96.59-12.59 97.58-13.45 99.03-14.1 100.48-14.75 102.46-15.11 104.44-15.48 107-15.48L107-15.48 109.2-15.48 109.2-17.72Q109.2-18.85 108.81-19.75 108.42-20.65 107.72-21.3 107.02-21.95 106.06-22.3 105.1-22.66 103.92-22.66L103.92-22.66Q103.04-22.66 102.06-22.46 101.07-22.27 100.08-21.9 99.09-21.53 98.19-21.04 97.28-20.56 96.6-19.97L96.6-19.97 96.16-20.21 95.18-23.78Q96.6-24.56 97.92-25.06 99.24-25.56 100.44-25.85 101.65-26.15 102.75-26.26 103.85-26.37 104.85-26.37L104.85-26.37Q109.42-26.37 111.63-24.48 113.84-22.58 113.84-18.8L113.84-18.8 113.84-6.05Q113.84-5.74 113.88-5.29 113.93-4.83 114.12-4.42 114.3-4 114.65-3.71 115.01-3.42 115.62-3.42L115.62-3.42Q115.96-3.42 116.52-3.53 117.08-3.64 117.64-3.91L117.64-3.91 117.64-1.32Q116.47-0.51 115.29-0.01 114.1 0.49 113.01 0.49L113.01 0.49Q112 0.49 111.36 0.09 110.71-0.32 110.28-0.95 109.86-1.59 109.61-2.36 109.37-3.13 109.2-3.86ZM109.2-6.98L109.2-12.65 107.34-12.65Q104.48-12.65 102.79-12.24 101.09-11.84 100.2-11.17 99.31-10.5 99.03-9.62 98.75-8.74 98.75-7.79L98.75-7.79Q98.75-6.76 99.04-5.96 99.33-5.15 99.86-4.58 100.38-4 101.12-3.71 101.85-3.42 102.7-3.42L102.7-3.42Q103.36-3.42 104.06-3.58 104.75-3.74 105.55-4.14 106.34-4.54 107.23-5.22 108.12-5.91 109.2-6.98L109.2-6.98ZM134.31 0L134.31-25.88 137.93-25.88 138.66-21.39Q139.49-22.17 140.58-23.05 141.66-23.93 142.9-24.66 144.13-25.39 145.46-25.88 146.79-26.37 148.13-26.37L148.13-26.37Q149.23-26.37 150.3-26 151.38-25.63 152.29-24.98 153.21-24.32 153.93-23.38 154.65-22.44 155.07-21.29L155.07-21.29Q155.97-22.09 157.04-22.99 158.12-23.88 159.33-24.63 160.53-25.39 161.9-25.88 163.27-26.37 164.78-26.37L164.78-26.37Q166.56-26.37 167.99-25.67 169.42-24.98 170.42-23.73 171.42-22.49 171.96-20.79 172.5-19.09 172.5-17.09L172.5-17.09 172.5 0 167.86 0 167.86-16.7Q167.86-18.02 167.5-19.08 167.15-20.14 166.49-20.9 165.83-21.66 164.89-22.06 163.95-22.46 162.78-22.46L162.78-22.46Q161.78-22.46 160.89-22.17 160-21.88 159.13-21.35 158.26-20.83 157.4-20.09 156.53-19.36 155.63-18.51L155.63-18.51Q155.68-18.16 155.69-17.83 155.7-17.5 155.7-17.09L155.7-17.09 155.7 0 151.06 0 151.06-16.7Q151.06-18.02 150.7-19.08 150.33-20.14 149.66-20.9 148.99-21.66 148.03-22.06 147.08-22.46 145.93-22.46L145.93-22.46Q144.96-22.46 144.08-22.17 143.2-21.88 142.36-21.35 141.52-20.83 140.67-20.1 139.83-19.38 138.95-18.55L138.95-18.55 138.95 0 134.31 0ZM201.69-4.83L201.69-2.2Q200.77-1.54 199.56-1.04 198.35-0.54 197.06-0.2 195.76 0.15 194.46 0.32 193.15 0.49 192.03 0.49L192.03 0.49Q189.54 0.49 187.29-0.34 185.04-1.17 183.36-2.78 181.67-4.39 180.67-6.77 179.67-9.16 179.67-12.26L179.67-12.26Q179.67-15.45 180.73-18.07 181.8-20.68 183.58-22.52 185.36-24.37 187.69-25.37 190.02-26.37 192.59-26.37L192.59-26.37Q194.66-26.37 196.46-25.67 198.25-24.98 199.58-23.58 200.91-22.19 201.67-20.1 202.43-18.02 202.43-15.23L202.43-15.23Q202.43-14.67 202.38-13.89 202.33-13.11 202.18-12.26L202.18-12.26 184.51-12.26Q184.51-10.16 185.25-8.51 186-6.86 187.35-5.73 188.71-4.59 190.59-4 192.47-3.42 194.74-3.42L194.74-3.42Q195.3-3.42 196.1-3.47 196.91-3.52 197.84-3.66 198.76-3.81 199.77-4.09 200.77-4.37 201.69-4.83L201.69-4.83ZM184.51-15.14L198.03-15.14Q198.03-16.97 197.52-18.37 197.01-19.78 196.13-20.73 195.25-21.68 194.09-22.17 192.93-22.66 191.61-22.66L191.61-22.66Q190.15-22.66 188.85-22.06 187.56-21.46 186.59-20.43 185.63-19.41 185.07-18.04 184.51-16.67 184.51-15.14L184.51-15.14ZM230.06-4.83L230.06-2.2Q229.13-1.54 227.92-1.04 226.72-0.54 225.42-0.2 224.13 0.15 222.82 0.32 221.52 0.49 220.39 0.49L220.39 0.49Q217.9 0.49 215.66-0.34 213.41-1.17 211.73-2.78 210.04-4.39 209.04-6.77 208.04-9.16 208.04-12.26L208.04-12.26Q208.04-15.45 209.1-18.07 210.16-20.68 211.95-22.52 213.73-24.37 216.06-25.37 218.39-26.37 220.95-26.37L220.95-26.37Q223.03-26.37 224.82-25.67 226.62-24.98 227.95-23.58 229.28-22.19 230.04-20.1 230.79-18.02 230.79-15.23L230.79-15.23Q230.79-14.67 230.74-13.89 230.7-13.11 230.55-12.26L230.55-12.26 212.87-12.26Q212.87-10.16 213.62-8.51 214.36-6.86 215.72-5.73 217.07-4.59 218.95-4 220.83-3.42 223.1-3.42L223.1-3.42Q223.66-3.42 224.47-3.47 225.28-3.52 226.2-3.66 227.13-3.81 228.13-4.09 229.13-4.37 230.06-4.83L230.06-4.83ZM212.87-15.14L226.4-15.14Q226.4-16.97 225.89-18.37 225.37-19.78 224.49-20.73 223.62-21.68 222.46-22.17 221.3-22.66 219.98-22.66L219.98-22.66Q218.51-22.66 217.22-22.06 215.92-21.46 214.96-20.43 214-19.41 213.43-18.04 212.87-16.67 212.87-15.14L212.87-15.14ZM240.29-6.49L240.29-22.17 235.06-22.17 235.45-24.56Q237.36-24.95 238.51-25.55 239.65-26.15 240.4-27.05 241.14-27.95 241.64-29.24 242.14-30.52 242.78-32.3L242.78-32.3 244.93-32.3 244.93-25.88 254.3-25.88 253.32-22.17 244.93-22.17 244.93-7.71Q244.93-6.54 245.28-5.73 245.63-4.91 246.27-4.39 246.9-3.88 247.81-3.65 248.71-3.42 249.81-3.42L249.81-3.42Q250.93-3.42 252.04-3.63 253.15-3.83 254.15-4.2L254.15-4.2 254.15-1.56Q252.62-0.56 250.92-0.04 249.22 0.49 247.47 0.49L247.47 0.49Q245.83 0.49 244.51 0.02 243.19-0.44 242.25-1.32 241.31-2.2 240.8-3.5 240.29-4.81 240.29-6.49L240.29-6.49ZM259.67-1.17L260.65-5.08 261.09-5.37Q262.01-4.86 263.04-4.46 264.06-4.05 265.07-3.78 266.07-3.52 267.03-3.37 268-3.22 268.83-3.22L268.83-3.22Q269.97-3.22 270.92-3.49 271.88-3.76 272.55-4.25 273.22-4.74 273.6-5.42 273.98-6.1 273.98-6.93L273.98-6.93Q273.98-7.98 273.39-8.68 272.8-9.38 271.85-9.88 270.9-10.38 269.68-10.74 268.46-11.11 267.19-11.5 265.92-11.89 264.7-12.38 263.48-12.87 262.53-13.61 261.57-14.36 260.99-15.42 260.4-16.48 260.4-18.02L260.4-18.02Q260.4-19.73 261.16-21.25 261.92-22.78 263.28-23.91 264.65-25.05 266.57-25.71 268.48-26.37 270.83-26.37L270.83-26.37Q271.39-26.37 272.17-26.32 272.95-26.27 273.83-26.16 274.71-26.05 275.62-25.87 276.54-25.68 277.39-25.42L277.39-25.42 276.42-21.61 275.83-21.26Q275.15-21.63 274.33-21.9 273.51-22.17 272.67-22.33 271.83-22.49 271.02-22.57 270.22-22.66 269.61-22.66L269.61-22.66Q268.48-22.66 267.57-22.41 266.65-22.17 265.99-21.72 265.33-21.26 264.97-20.62 264.6-19.97 264.6-19.14L264.6-19.14Q264.6-18.07 265.19-17.36 265.77-16.65 266.75-16.15 267.73-15.65 268.96-15.28 270.19-14.92 271.49-14.53 272.78-14.14 274.01-13.65 275.25-13.16 276.22-12.4 277.2-11.65 277.79-10.56 278.37-9.47 278.37-7.91L278.37-7.91Q278.37-6.08 277.55-4.54 276.74-3 275.31-1.88 273.88-0.76 271.96-0.13 270.05 0.49 267.85 0.49L267.85 0.49Q265.97 0.49 263.83 0.05 261.7-0.39 259.67-1.17L259.67-1.17ZM302.19-35.77L302.19 0 297.41 0 297.41-35.77 302.19-35.77ZM311.81 0L311.81-25.88 315.42-25.88 316.16-21.39Q317.01-22.19 318.11-23.07 319.21-23.95 320.49-24.68 321.77-25.42 323.21-25.89 324.65-26.37 326.17-26.37L326.17-26.37Q327.95-26.37 329.38-25.68 330.8-25 331.82-23.77 332.83-22.53 333.38-20.84 333.93-19.14 333.93-17.14L333.93-17.14 333.93 0 329.29 0 329.29-16.7Q329.29-18.12 328.89-19.2 328.49-20.29 327.78-21.01 327.07-21.73 326.09-22.09 325.12-22.46 323.97-22.46L323.97-22.46Q321.94-22.46 320.14-21.39 318.33-20.31 316.45-18.55L316.45-18.55 316.45 0 311.81 0ZM340.91-1.17L341.89-5.08 342.33-5.37Q343.25-4.86 344.28-4.46 345.3-4.05 346.31-3.78 347.31-3.52 348.27-3.37 349.24-3.22 350.07-3.22L350.07-3.22Q351.21-3.22 352.16-3.49 353.12-3.76 353.79-4.25 354.46-4.74 354.84-5.42 355.22-6.1 355.22-6.93L355.22-6.93Q355.22-7.98 354.63-8.68 354.04-9.38 353.09-9.88 352.14-10.38 350.92-10.74 349.7-11.11 348.43-11.5 347.16-11.89 345.94-12.38 344.72-12.87 343.77-13.61 342.81-14.36 342.23-15.42 341.64-16.48 341.64-18.02L341.64-18.02Q341.64-19.73 342.4-21.25 343.16-22.78 344.52-23.91 345.89-25.05 347.81-25.71 349.72-26.37 352.07-26.37L352.07-26.37Q352.63-26.37 353.41-26.32 354.19-26.27 355.07-26.16 355.95-26.05 356.86-25.87 357.78-25.68 358.63-25.42L358.63-25.42 357.66-21.61 357.07-21.26Q356.39-21.63 355.57-21.9 354.75-22.17 353.91-22.33 353.07-22.49 352.26-22.57 351.46-22.66 350.85-22.66L350.85-22.66Q349.72-22.66 348.81-22.41 347.89-22.17 347.23-21.72 346.57-21.26 346.21-20.62 345.84-19.97 345.84-19.14L345.84-19.14Q345.84-18.07 346.43-17.36 347.01-16.65 347.99-16.15 348.97-15.65 350.2-15.28 351.43-14.92 352.73-14.53 354.02-14.14 355.25-13.65 356.49-13.16 357.46-12.4 358.44-11.65 359.03-10.56 359.61-9.47 359.61-7.91L359.61-7.91Q359.61-6.08 358.79-4.54 357.98-3 356.55-1.88 355.12-0.76 353.2-0.13 351.29 0.49 349.09 0.49L349.09 0.49Q347.21 0.49 345.07 0.05 342.94-0.39 340.91-1.17L340.91-1.17ZM366.57 0L366.57-25.88 371.21-25.88 371.21 0 366.57 0ZM368.91-31.49L368.91-31.49Q368.3-31.49 367.76-31.71 367.23-31.93 366.84-32.32 366.44-32.71 366.22-33.24 366.01-33.76 366.01-34.4L366.01-34.4Q366.01-35.03 366.25-35.6 366.49-36.16 366.9-36.57 367.3-36.99 367.85-37.22 368.4-37.45 369.01-37.45L369.01-37.45Q369.59-37.45 370.12-37.22 370.64-36.99 371.03-36.57 371.42-36.16 371.64-35.61 371.86-35.06 371.86-34.45L371.86-34.45Q371.86-33.79 371.62-33.24 371.38-32.69 370.97-32.31 370.57-31.93 370.03-31.71 369.5-31.49 368.91-31.49ZM392.69 1.46L386.66 1.46Q386.02 1.78 385.3 2.25 384.58 2.71 383.97 3.28 383.36 3.86 382.95 4.55 382.53 5.25 382.53 6.01L382.53 6.01Q382.53 6.79 383.01 7.48 383.48 8.18 384.4 8.69 385.31 9.2 386.66 9.51 388 9.81 389.73 9.81L389.73 9.81Q391.71 9.81 393.27 9.42 394.84 9.03 395.91 8.35 396.98 7.67 397.55 6.77 398.11 5.88 398.11 4.88L398.11 4.88Q398.11 3.98 397.67 3.33 397.23 2.69 396.48 2.27 395.74 1.86 394.75 1.66 393.76 1.46 392.69 1.46L392.69 1.46ZM383.31 0.98L383.31 0.98Q382.56 0.73 381.9 0.37 381.24 0 380.75-0.45 380.26-0.9 379.98-1.48 379.7-2.05 379.7-2.71L379.7-2.71Q379.7-3.52 380.1-4.24 380.5-4.96 381.15-5.63 381.8-6.3 382.62-6.9 383.43-7.5 384.29-8.06L384.29-8.06Q381.58-9.38 380.32-11.52 379.06-13.67 379.06-16.19L379.06-16.19Q379.06-17.75 379.52-19.12 379.97-20.48 380.77-21.62 381.58-22.75 382.65-23.63 383.73-24.51 384.97-25.12 386.22-25.73 387.57-26.05 388.93-26.37 390.27-26.37L390.27-26.37Q391.88-26.37 393.4-25.95 394.91-25.54 395.93-24.88L395.93-24.88Q396.32-25.1 396.9-25.29 397.47-25.49 398.11-25.61 398.74-25.73 399.39-25.81 400.04-25.88 400.6-25.88L400.6-25.88 404.99-25.88 404.02-22.22 398.25-22.22Q398.42-22.12 398.75-21.67 399.08-21.22 399.41-20.5 399.74-19.78 400-18.82 400.26-17.87 400.26-16.8L400.26-16.8Q400.26-14.82 399.32-13.07 398.38-11.33 396.85-10.03 395.32-8.74 393.36-7.98 391.39-7.23 389.34-7.23L389.34-7.23Q388.81-7.23 388.27-7.28 387.73-7.32 387.12-7.4L387.12-7.4Q386.68-7.13 386.18-6.79 385.68-6.45 385.28-6.04 384.87-5.64 384.61-5.19 384.34-4.74 384.34-4.25L384.34-4.25Q384.34-3.47 385.06-2.98 385.78-2.49 387.02-2.49L387.02-2.49 393.93-2.49Q395.69-2.49 397.25-2.04 398.82-1.59 399.97-0.74 401.13 0.1 401.82 1.27 402.5 2.44 402.5 3.86L402.5 3.86Q402.5 5.52 401.55 7.24 400.6 8.96 398.79 10.38 396.98 11.79 394.36 12.68 391.73 13.57 388.37 13.57L388.37 13.57Q386.14 13.57 384.23 13.16 382.31 12.74 380.91 11.99 379.5 11.23 378.7 10.16 377.89 9.08 377.89 7.76L377.89 7.76Q377.89 6.96 378.2 6.2 378.5 5.44 378.98 4.79 379.45 4.13 380.05 3.54 380.65 2.95 381.25 2.48 381.85 2 382.4 1.62 382.95 1.25 383.31 0.98ZM383.46-16.94L383.46-16.94Q383.46-15.63 383.92-14.48 384.39-13.33 385.2-12.49 386.02-11.65 387.17-11.17 388.32-10.69 389.68-10.69L389.68-10.69Q390.98-10.69 392.1-11.13 393.22-11.57 394.07-12.35 394.91-13.13 395.38-14.25 395.86-15.36 395.86-16.72L395.86-16.72Q395.86-18.04 395.4-19.18 394.93-20.31 394.1-21.13 393.27-21.95 392.13-22.42 390.98-22.9 389.61-22.9L389.61-22.9Q388.32-22.9 387.21-22.47 386.1-22.05 385.25-21.28 384.41-20.51 383.93-19.4 383.46-18.29 383.46-16.94ZM410.02 0L410.02-39.11 414.66-39.11 414.66-21.68Q415.54-22.46 416.61-23.29 417.68-24.12 418.93-24.8 420.17-25.49 421.54-25.93 422.91-26.37 424.37-26.37L424.37-26.37Q426.13-26.37 427.56-25.7 428.99-25.02 430.01-23.82 431.04-22.61 431.59-20.91 432.14-19.21 432.14-17.14L432.14-17.14 432.14 0 427.5 0 427.5-16.75Q427.5-18.16 427.1-19.24 426.69-20.31 426-21.03 425.3-21.75 424.33-22.11 423.35-22.46 422.23-22.46L422.23-22.46Q420.17-22.46 418.34-21.39 416.51-20.31 414.66-18.55L414.66-18.55 414.66 0 410.02 0ZM442.76-6.49L442.76-22.17 437.53-22.17 437.92-24.56Q439.83-24.95 440.97-25.55 442.12-26.15 442.87-27.05 443.61-27.95 444.11-29.24 444.61-30.52 445.25-32.3L445.25-32.3 447.39-32.3 447.39-25.88 456.77-25.88 455.79-22.17 447.39-22.17 447.39-7.71Q447.39-6.54 447.75-5.73 448.1-4.91 448.74-4.39 449.37-3.88 450.27-3.65 451.18-3.42 452.28-3.42L452.28-3.42Q453.4-3.42 454.51-3.63 455.62-3.83 456.62-4.2L456.62-4.2 456.62-1.56Q455.08-0.56 453.39-0.04 451.69 0.49 449.93 0.49L449.93 0.49Q448.3 0.49 446.98 0.02 445.66-0.44 444.72-1.32 443.78-2.2 443.27-3.5 442.76-4.81 442.76-6.49L442.76-6.49ZM462.14-1.17L463.11-5.08 463.55-5.37Q464.48-4.86 465.51-4.46 466.53-4.05 467.53-3.78 468.53-3.52 469.5-3.37 470.46-3.22 471.29-3.22L471.29-3.22Q472.44-3.22 473.39-3.49 474.34-3.76 475.02-4.25 475.69-4.74 476.07-5.42 476.44-6.1 476.44-6.93L476.44-6.93Q476.44-7.98 475.86-8.68 475.27-9.38 474.32-9.88 473.37-10.38 472.15-10.74 470.93-11.11 469.66-11.5 468.39-11.89 467.17-12.38 465.95-12.87 464.99-13.61 464.04-14.36 463.46-15.42 462.87-16.48 462.87-18.02L462.87-18.02Q462.87-19.73 463.63-21.25 464.38-22.78 465.75-23.91 467.12-25.05 469.03-25.71 470.95-26.37 473.29-26.37L473.29-26.37Q473.86-26.37 474.64-26.32 475.42-26.27 476.3-26.16 477.18-26.05 478.09-25.87 479.01-25.68 479.86-25.42L479.86-25.42 478.89-21.61 478.3-21.26Q477.62-21.63 476.8-21.9 475.98-22.17 475.14-22.33 474.3-22.49 473.49-22.57 472.68-22.66 472.07-22.66L472.07-22.66Q470.95-22.66 470.04-22.41 469.12-22.17 468.46-21.72 467.8-21.26 467.44-20.62 467.07-19.97 467.07-19.14L467.07-19.14Q467.07-18.07 467.66-17.36 468.24-16.65 469.22-16.15 470.19-15.65 471.43-15.28 472.66-14.92 473.95-14.53 475.25-14.14 476.48-13.65 477.71-13.16 478.69-12.4 479.67-11.65 480.25-10.56 480.84-9.47 480.84-7.91L480.84-7.91Q480.84-6.08 480.02-4.54 479.2-3 477.77-1.88 476.35-0.76 474.43-0.13 472.51 0.49 470.32 0.49L470.32 0.49Q468.44 0.49 466.3 0.05 464.16-0.39 462.14-1.17L462.14-1.17Z" opacity="1" transform="matrix(1,0,0,1,0,0)" fill="#fccc00" class="undefined-text-1" data-fill-palette-color="secondary" id="text-1"></path></svg></g></svg></g></svg></g></svg></g><g transform="matrix(1,0,0,1,442.74576829439997,0)"><svg viewBox="0 0 203.1940306923259 179.01534846604198" height="179.01534846604198" width="203.1940306923259"><g><svg xmlns="http://www.w3.org/2000/svg" xmlns:xlink="http://www.w3.org/1999/xlink" version="1.1" x="0" y="0" viewBox="6.300000190734863 11.5 87.39999389648438 77" style="enable-background:new 0 0 100 100;" xml:space="preserve" height="179.01534846604198" width="203.1940306923259" class="icon-icon-0" data-fill-palette-color="accent" id="icon-0"><path d="M72.3 12.3L72.3 12.3 72.3 12.3l-0.4-0.8H28.2L6.3 50l21.8 38.5h43.7L93.7 50 72.3 12.3zM33.3 25.3L9.9 47.7l18.6-32.8L33.3 25.3zM70.7 14.8l6.4 35.7L36.9 25.8 70.7 14.8zM35.5 27.3l41 25.2-41 23.3V27.3zM77 54.5l-7.2 30.8-32.6-8.1L77 54.5zM33.5 75L9.9 50.5l23.6-22.7V75zM33.2 77.6l-4.6 7.7L11.5 55.1 33.2 77.6zM35 78.6l31.4 7.9H30.2L35 78.6zM79.3 53.3l11.6-2.5L72.1 84 79.3 53.3zM90.7 48.9l-11.4 2.5-5.9-33.1L90.7 48.9zM35 24.3l-5-10.8h38.2L35 24.3z" fill="#f9f9f9" data-fill-palette-color="accent"></path></svg></g></svg></g></svg></g><defs></defs></svg><rect width="395.52" height="109.6141633266105" fill="none" stroke="none" visibility="hidden"></rect></g></svg></g></svg>